<?xml version="1.0" standalone="no"?>
<!DOCTYPE svg PUBLIC "-//W3C//DTD SVG 20010904//EN"
 "http://www.w3.org/TR/2001/REC-SVG-20010904/DTD/svg10.dtd">
<svg version="1.0" xmlns="http://www.w3.org/2000/svg"
 width="275.000000pt" height="183.000000pt" viewBox="0 0 275.000000 183.000000"
 preserveAspectRatio="xMidYMid meet">

<rect width="100%" height="100%" fill="#ffffff" rx="20" />

<g transform="translate(0.000000,183.000000) scale(0.100000,-0.100000)"
fill="#000000" stroke="none">
<path d="M782 1663 c3 -24 10 -28 88 -49 47 -12 168 -50 269 -83 101 -34 186
-59 188 -57 10 9 -61 76 -100 95 -23 11 -91 29 -152 40 -60 10 -149 33 -197
50 -47 17 -89 31 -93 31 -3 0 -5 -12 -3 -27z"/>
<path d="M1865 1658 c-44 -16 -129 -39 -190 -49 -60 -11 -129 -29 -152 -40
-39 -19 -110 -86 -100 -95 2 -2 86 23 188 57 101 33 222 71 269 83 78 21 85
25 88 49 4 33 0 33 -103 -5z"/>
<path d="M583 1633 c-3 -8 -2 -18 3 -22 7 -6 447 -103 577 -127 38 -7 -113 45
-237 82 -66 20 -169 46 -229 59 -93 20 -109 21 -114 8z"/>
<path d="M2050 1625 c-113 -24 -302 -79 -415 -119 -83 -30 -78 -30 265 44 203
43 266 60 268 72 2 9 -1 18 -5 21 -4 2 -55 -6 -113 -18z"/>
<path d="M440 978 c0 -345 3 -628 7 -628 8 0 803 -170 826 -176 16 -5 17 29
17 623 l0 628 -425 91 -425 90 0 -628z"/>
<path d="M1883 1515 l-423 -90 0 -628 c0 -594 1 -628 18 -623 9 3 199 44 422
91 223 48 406 88 408 89 1 2 1 284 0 627 l-3 624 -422 -90z"/>
<path d="M1341 1441 c-20 -13 23 -25 57 -16 20 5 23 8 11 16 -18 11 -50 11
-68 0z"/>
<path d="M1320 779 c0 -671 -3 -642 55 -642 58 0 55 -29 55 642 l0 616 -55 0
-55 0 0 -616z"/>
</g>
</svg>
